<?xml version="1.0" encoding="utf-8"?>
<!-- Generator: Adobe Illustrator 23.0.0, SVG Export Plug-In . SVG Version: 6.00 Build 0)  -->
<svg version="1.1" id="Layer_1" xmlns="http://www.w3.org/2000/svg" xmlns:xlink="http://www.w3.org/1999/xlink" x="0px" y="0px"
	 viewBox="0 0 454.6 235.4" style="enable-background:new 0 0 454.6 235.4;" xml:space="preserve">
<style type="text/css">
	.st0{fill:#2A9D8F;stroke:#264653;stroke-width:2;stroke-miterlimit:10;}
	.st1{fill:#264653;stroke:#FFFFFF;stroke-width:2;stroke-miterlimit:10;}
	.st2{fill:#FFFFFF;}
</style>
<path class="st0" d="M415.7,234.4H38.9c-21,0-37.9-17-37.9-37.9V38.9C1,18,18,1,38.9,1h376.7c21,0,37.9,17,37.9,37.9v157.5
	C453.6,217.4,436.6,234.4,415.7,234.4z"/>
<path class="st1" d="M452.4,87H333.3c-5.7,0-10.3,4.6-10.3,10.3v39.8c0,5.7,4.6,10.3,10.3,10.3h119.1"/>
<g>
	<path class="st2" d="M149.2,185.2v-47c0-1.6-1.3-2.9-2.9-2.9h-19.6c-1.6,0-2.9,1.3-2.9,2.9c0,1.6,1.3,2.9,2.9,2.9h16.6v44.1
		c-5.6,1.3-9.8,6.4-9.8,12.4c0,7,5.7,12.7,12.7,12.7c7,0,12.7-5.7,12.7-12.7C159,191.6,154.8,186.6,149.2,185.2z M146.2,204.5
		c-3.8,0-6.8-3.1-6.8-6.8c0-3.8,3.1-6.8,6.8-6.8s6.8,3.1,6.8,6.8C153.1,201.4,150,204.5,146.2,204.5z"/>
	<path class="st2" d="M180.5,185.2v-47c0-1.6-1.3-2.9-2.9-2.9H158c-1.6,0-2.9,1.3-2.9,2.9c0,1.6,1.3,2.9,2.9,2.9h16.6v44.1
		c-5.6,1.3-9.8,6.4-9.8,12.4c0,7,5.7,12.7,12.7,12.7s12.7-5.7,12.7-12.7C190.3,191.6,186.1,186.6,180.5,185.2z M177.5,204.5
		c-3.8,0-6.8-3.1-6.8-6.8c0-3.8,3.1-6.8,6.8-6.8c3.8,0,6.8,3.1,6.8,6.8C184.4,201.4,181.3,204.5,177.5,204.5z"/>
	<path class="st2" d="M230.4,165.3c-6,0-11,4.2-12.4,9.8h-6.2v-36.9c0-1.6-1.3-2.9-2.9-2.9h-19.6c-1.6,0-2.9,1.3-2.9,2.9
		c0,1.6,1.3,2.9,2.9,2.9h16.6v36.9c0,1.6,1.3,2.9,2.9,2.9h9.2c1.3,5.6,6.4,9.8,12.4,9.8c7,0,12.7-5.7,12.7-12.7
		C243.1,171,237.4,165.3,230.4,165.3z M230.4,184.9c-3.8,0-6.8-3.1-6.8-6.8c0-3.8,3.1-6.8,6.8-6.8c3.8,0,6.8,3.1,6.8,6.8
		C237.2,181.8,234.1,184.9,230.4,184.9z"/>
	<path class="st2" d="M246.9,89.6c-4-4.9-9.3-8.6-15.3-10.4c-0.7-13.9-6.4-26.9-16.4-36.7c-10.5-10.4-24.4-16.1-39.1-16.1
		c-19.4,0-37.3,10.1-47.4,26.5c-2.5-0.8-5-1.2-7.6-1.2c-12,0-22.3,8.5-24.8,20c-15.4,4-26.4,18-26.4,34.1
		c0,19.4,15.8,35.3,35.3,35.3h6.8v34h-6.2c-1.3-5.6-6.4-9.8-12.4-9.8c-7,0-12.7,5.7-12.7,12.7c0,7,5.7,12.7,12.7,12.7
		c6,0,11-4.2,12.4-9.8h9.2c1.6,0,2.9-1.3,2.9-2.9v-39.8c0-1.6-1.3-2.9-2.9-2.9h-9.8c-16.2,0-29.4-13.2-29.4-29.4
		c0-14,9.9-26.1,23.6-28.8c1.2-0.2,2.2-1.2,2.3-2.5c1.3-9.7,9.6-16.9,19.3-16.9c2.7,0,5.3,0.5,7.7,1.6c1.4,0.6,3,0,3.7-1.3
		c8.8-15.8,25.4-25.7,43.5-25.7c27.2,0,49.4,22.1,49.7,49.2c0,1.4,1,2.5,2.3,2.8c11.8,2.7,20,13.1,20,25.1
		c0,14.2-11.6,25.8-25.8,25.8h-1.6c-1.6,0-2.9,1.3-2.9,2.9c0,1.6,1.3,2.9,2.9,2.9h1.6c17.5,0,31.7-14.2,31.7-31.7
		C253.9,102.3,251.4,95.2,246.9,89.6z M93.4,184.9c-3.8,0-6.8-3.1-6.8-6.8c0-3.8,3.1-6.8,6.8-6.8s6.8,3.1,6.8,6.8
		C100.2,181.8,97.2,184.9,93.4,184.9z"/>
	<path class="st2" d="M213,84.6L213,84.6c1.6,0,3-1.3,2.9-3c0-4.8-1-9.6-2.7-14.1c-0.6-1.5-2.3-2.3-3.8-1.7
		c-1.5,0.6-2.3,2.3-1.7,3.8c1.5,3.8,2.3,7.9,2.3,12C210.1,83.3,211.4,84.6,213,84.6L213,84.6z"/>
	<path class="st2" d="M202.3,60.4c0.6,0.7,1.4,1.1,2.3,1.1c0.7,0,1.3-0.2,1.9-0.7c1.2-1,1.4-2.9,0.4-4.1
		c-7.6-9.3-18.9-14.6-30.8-14.6c-1.6,0-2.9,1.3-2.9,2.9s1.3,2.9,2.9,2.9C186.2,47.9,195.8,52.5,202.3,60.4L202.3,60.4z"/>
</g>
</svg>
