<?xml version="1.0" encoding="utf-8"?>
<!-- Generator: Adobe Illustrator 23.0.0, SVG Export Plug-In . SVG Version: 6.00 Build 0)  -->
<svg version="1.1" id="Layer_1" xmlns="http://www.w3.org/2000/svg" xmlns:xlink="http://www.w3.org/1999/xlink" x="0px" y="0px"
	 viewBox="0 0 522 328" style="enable-background:new 0 0 522 328;" xml:space="preserve">
<style type="text/css">
	.st0{fill:#2A9D8F;stroke:#264653;stroke-width:2;stroke-miterlimit:10;}
	.st1{fill:#264653;stroke:#FFFFFF;stroke-width:2;stroke-miterlimit:10;}
	.st2{fill:#FFFFFF;}
	.st3{fill:none;stroke:#FFFFFF;stroke-width:2;stroke-miterlimit:10;}
</style>
<path class="st0" d="M480.1,324H41.9C21,324,4,307,4,286.1V41.9C4,21,21,4,41.9,4h438.1C501,4,518,21,518,41.9v244.1
	C518,307,501,324,480.1,324z"/>
<path class="st1" d="M516.8,115.9H330c-8.9,0-16.2,7.3-16.2,16.3v62.8c0,9,7.2,16.3,16.2,16.3h186.8"/>
<g>
	<path class="st2" d="M137.1,231.6v-47c0-1.6-1.3-2.9-2.9-2.9h-19.6c-1.6,0-2.9,1.3-2.9,2.9c0,1.6,1.3,2.9,2.9,2.9h16.6v44.1
		c-5.6,1.3-9.8,6.4-9.8,12.4c0,7,5.7,12.7,12.7,12.7s12.7-5.7,12.7-12.7C146.9,237.9,142.7,232.9,137.1,231.6z M134.2,250.8
		c-3.8,0-6.8-3.1-6.8-6.8c0-3.8,3.1-6.8,6.8-6.8s6.8,3.1,6.8,6.8C141,247.7,138,250.8,134.2,250.8z"/>
	<path class="st2" d="M168.4,231.6v-47c0-1.6-1.3-2.9-2.9-2.9h-19.6c-1.6,0-2.9,1.3-2.9,2.9c0,1.6,1.3,2.9,2.9,2.9h16.6v44.1
		c-5.6,1.3-9.8,6.4-9.8,12.4c0,7,5.7,12.7,12.7,12.7c7,0,12.7-5.7,12.7-12.7C178.2,237.9,174,232.9,168.4,231.6z M165.5,250.8
		c-3.8,0-6.8-3.1-6.8-6.8c0-3.8,3.1-6.8,6.8-6.8c3.8,0,6.8,3.1,6.8,6.8C172.3,247.7,169.3,250.8,165.5,250.8z"/>
	<path class="st2" d="M218.3,211.6c-6,0-11,4.2-12.4,9.8h-6.2v-36.9c0-1.6-1.3-2.9-2.9-2.9h-19.6c-1.6,0-2.9,1.3-2.9,2.9
		c0,1.6,1.3,2.9,2.9,2.9h16.6v36.9c0,1.6,1.3,2.9,2.9,2.9h9.2c1.3,5.6,6.4,9.8,12.4,9.8c7,0,12.7-5.7,12.7-12.7
		C231,217.4,225.3,211.6,218.3,211.6z M218.3,231.2c-3.8,0-6.8-3.1-6.8-6.8c0-3.8,3.1-6.8,6.8-6.8c3.8,0,6.8,3.1,6.8,6.8
		C225.2,228.1,222.1,231.2,218.3,231.2z"/>
	<path class="st2" d="M234.8,135.9c-4-4.9-9.3-8.6-15.3-10.4c-0.7-13.9-6.4-26.9-16.4-36.7c-10.5-10.4-24.4-16.1-39.1-16.1
		c-19.4,0-37.3,10.1-47.4,26.5c-2.5-0.8-5-1.2-7.6-1.2c-12,0-22.3,8.5-24.8,20c-15.4,4-26.4,18-26.4,34.1
		c0,19.4,15.8,35.3,35.3,35.3h6.8v34h-6.2c-1.3-5.6-6.4-9.8-12.4-9.8c-7,0-12.7,5.7-12.7,12.7c0,7,5.7,12.7,12.7,12.7
		c6,0,11-4.2,12.4-9.8h9.2c1.6,0,2.9-1.3,2.9-2.9v-39.8c0-1.6-1.3-2.9-2.9-2.9h-9.8c-16.2,0-29.4-13.2-29.4-29.4
		c0-14,9.9-26.1,23.6-28.8c1.2-0.2,2.2-1.2,2.3-2.5C91,111.2,99.3,104,109,104c2.7,0,5.3,0.5,7.7,1.6c1.4,0.6,3,0,3.7-1.3
		c8.8-15.8,25.4-25.7,43.5-25.7c27.2,0,49.4,22.1,49.7,49.2c0,1.4,1,2.5,2.3,2.8c11.8,2.7,20,13.1,20,25.1
		c0,14.2-11.6,25.8-25.8,25.8h-1.6c-1.6,0-2.9,1.3-2.9,2.9c0,1.6,1.3,2.9,2.9,2.9h1.6c17.5,0,31.7-14.2,31.7-31.7
		C241.8,148.6,239.3,141.5,234.8,135.9z M81.4,231.2c-3.8,0-6.8-3.1-6.8-6.8c0-3.8,3.1-6.8,6.8-6.8s6.8,3.1,6.8,6.8
		C88.2,228.1,85.1,231.2,81.4,231.2z"/>
	<path class="st2" d="M201,130.9L201,130.9c1.6,0,3-1.3,2.9-3c0-4.8-1-9.6-2.7-14.1c-0.6-1.5-2.3-2.3-3.8-1.7
		c-1.5,0.6-2.3,2.3-1.7,3.8c1.5,3.8,2.3,7.9,2.3,12C198.1,129.6,199.4,130.9,201,130.9L201,130.9z"/>
	<path class="st2" d="M190.3,106.7c0.6,0.7,1.4,1.1,2.3,1.1c0.7,0,1.3-0.2,1.9-0.7c1.2-1,1.4-2.9,0.4-4.1
		c-7.6-9.3-18.9-14.6-30.8-14.6c-1.6,0-2.9,1.3-2.9,2.9c0,1.6,1.3,2.9,2.9,2.9C174.2,94.2,183.7,98.8,190.3,106.7L190.3,106.7z"/>
</g>
<circle class="st3" cx="360.4" cy="163.5" r="24.9"/>
</svg>
